<?xml version="1.0" encoding="UTF-8"?>
<svg id="Layer_1" data-name="Layer 1" xmlns="http://www.w3.org/2000/svg" viewBox="0 0 2000 2000">
  <defs>
    <style>
      .cls-1 {
        fill: #fff;
      }

      .cls-2 {
        fill: #006061;
      }
    </style>
  </defs>
  <rect class="cls-2" x="1452.37" y="833.5" width="46.32" height="207.22"/>
  <rect class="cls-2" x="856.79" y="833.5" width="46.32" height="207.22"/>
  <polygon class="cls-2" points="1148.81 994.39 1140.12 1040.72 1358.07 1040.72 1349.69 994.39 1148.81 994.39"/>
  <rect class="cls-2" x="984.65" y="905.38" width="46.32" height="224.35" transform="translate(2025.36 9.75) rotate(90)"/>
  <rect class="cls-2" x="1281.84" y="850.68" width="46.32" height="190.57" transform="translate(2250.96 -359.04) rotate(90)"/>
  <polygon class="cls-2" points="1401.05 922.8 1355.52 922.8 1377.19 1040.72 1422.72 1040.72 1401.05 922.8"/>
  <polygon class="cls-2" points="1148.81 922.8 1103.28 922.8 1080.52 1040.72 1126.05 1040.72 1148.81 922.8"/>
  <polygon class="cls-2" points="836.01 955.2 790.48 955.2 761.95 1105.27 807.48 1105.27 836.01 955.2"/>
  <polygon class="cls-2" points="1039.23 922.8 993.7 922.8 970.94 1040.72 1016.47 1040.72 1039.23 922.8"/>
  <polygon class="cls-2" points="737.2 1106.43 497.58 1106.43 497.58 966.16 557.62 978.07 556.71 1061.3 700.45 1061.3 707.12 1029.11 626.44 1001.72 645.18 903.41 763.24 903.41 763.24 948.55 682.53 948.55 678.13 971.6 759.41 999.2 737.2 1106.43"/>
  <circle class="cls-2" cx="1321.36" cy="870.26" r="27.26"/>
  <circle class="cls-2" cx="1134.39" cy="870.26" r="27.26"/>
  <circle class="cls-2" cx="1078.67" cy="870.26" r="27.26"/>
  <circle class="cls-2" cx="961.59" cy="1095.6" r="27.26"/>
  <g>
    <path class="cls-1" d="M1198.75,1097.97v11.45h-37.1s0,16.94,0,16.94h33.28v11.45h-33.28s0,17.23,0,17.23h38.28v11.45h-51.39s0-68.52,0-68.52h50.22Z"/>
    <path class="cls-1" d="M1223.03,1097.97l15.76,22.51,15.76-22.51h15.56s-23,32.79-23,32.79l24.96,35.73h-15.76s-17.52-24.47-17.52-24.47l-17.33,24.47h-15.37s24.67-35.14,24.67-35.14l-23.1-33.38h15.37Z"/>
    <path class="cls-1" d="M1326.8,1152.01h-33.48s-6.07,14.49-6.07,14.49h-13.61s30.05-68.52,30.05-68.52h13.61s29.66,68.52,29.66,68.52h-14.1s-6.07-14.49-6.07-14.49ZM1322.1,1140.75l-11.94-28.78-12.14,28.78h24.08Z"/>
    <path class="cls-1" d="M1370.26,1097.97l22.71,44.15,22.51-44.15h14.98s0,68.52,0,68.52h-12.04v-49.14s-21.34,42.09-21.34,42.09h-8.42s-21.44-42.09-21.44-42.09v49.14h-11.94s0-68.52,0-68.52h14.98Z"/>
    <path class="cls-1" d="M1477.45,1144.08v22.42h-13.12v-21.93s-25.55-46.6-25.55-46.6h13.31s18.7,32.21,18.7,32.21l18.4-32.21h13.22s-24.96,46.11-24.96,46.11Z"/>
  </g>
</svg>